# xmcd
#
# Track frame offsets:
#	150
#	27850
#	47525
#	70465
#	90005
#	101765
#	125312
#	142345
#	205872
#	218605
#	237425
#	253992
#	265125
#	320519
#
# Disc length: 4732 seconds
#
# Revision: 0
# Processed by: cddbd v1.5.2PL0 Copyright (c) Steve Scherf et al.
# Submitted via: audiograbber 1.83.01
#
DISCID=cb127a0e
DTITLE=Edgar Broughton Band - Wasa Wasa
DYEAR=1969
DGENRE=
TTITLE0=Edgar Broughton Band - Death Of An Electric Citizen
TTITLE1=Edgar Broughton Band - American Boy Soldier
TTITLE2=Edgar Broughton Band - Why Can't Somebody Love Me?
TTITLE3=Edgar Broughton Band - Neptune
TTITLE4=Edgar Broughton Band - Evil
TTITLE5=Edgar Broughton Band - Crying
TTITLE6=Edgar Broughton Band - Love In The Rain
TTITLE7=Edgar Broughton Band - Dawn Crept Away
TTITLE8=Edgar Broughton Blues Band - Messin' With The Kid
TTITLE9=Edgar Broughton Blues Band - Waterloo Man
TTITLE10=Edgar Broughton Blues Band - Jacqueline
TTITLE11=Edgar Broughton Blues Band - Tellin' Everybody
TTITLE12=Edgar Broughton Band - Untitled Freak Out
TTITLE13=Daten - CD
EXTD=
EXTT0=
EXTT1=
EXTT2=
EXTT3=
EXTT4=
EXTT5=
EXTT6=
EXTT7=
EXTT8=
EXTT9=
EXTT10=
EXTT11=
EXTT12=
EXTT13=
PLAYORDER=
